HIERARCHY
ROOT Hips
{
	OFFSET 0.000000 8.830580 0.000000
	CHANNELS 6 Xposition Yposition Zposition Zrotation Yrotation Xrotation 
	JOINT Spine
	{
		OFFSET 0.000000 0.010000 0.000000
		CHANNELS 3 Zrotation Yrotation Xrotation
		JOINT Spine1
		{
			OFFSET 0.000000 2.459130 0.000000
			CHANNELS 3 Zrotation Yrotation Xrotation
			JOINT Neck
			{
				OFFSET 0.000000 2.484630 0.000000
				CHANNELS 3 Zrotation Yrotation Xrotation
				JOINT Head_virtual
				{
					OFFSET 0.000000 0.000000 0.000000
					CHANNELS 3 Zrotation Yrotation Xrotation
					JOINT Head
					{
						OFFSET 0.000000 0.927525 0.000000
						CHANNELS 3 Zrotation Yrotation Xrotation
						End Site
						{
							OFFSET 0.000000 0.000000 0.000000
						}
					}
				}
				JOINT LeftUpArm_virtual
				{
					OFFSET 0.000000 0.000000 0.000000
					CHANNELS 3 Zrotation Yrotation Xrotation
					JOINT LeftUpArm
					{
						OFFSET 1.248820 0.000000 0.000000
						CHANNELS 3 Zrotation Yrotation Xrotation
						JOINT LeftForeArm
						{
							OFFSET 2.597580 0.000000 0.000000
							CHANNELS 3 Zrotation Yrotation Xrotation
							JOINT LeftHand
							{
								OFFSET 2.455420 0.000000 0.000000
								CHANNELS 3 Zrotation Yrotation Xrotation
								End Site
								{
									OFFSET 0.000000 0.000000 0.000000
								}
							}
						}
					}
				}
				JOINT RightUpArm_virtual
				{
					OFFSET -0.000000 -0.000000 -0.000000
					CHANNELS 3 Zrotation Yrotation Xrotation
					JOINT RightUpArm
					{
						OFFSET -1.248820 -0.000000 -0.000000
						CHANNELS 3 Zrotation Yrotation Xrotation
						JOINT RightForeArm
						{
							OFFSET -2.597580 -0.000000 -0.000000
							CHANNELS 3 Zrotation Yrotation Xrotation
							JOINT RightHand
							{
								OFFSET -2.455420 -0.000000 -0.000000
								CHANNELS 3 Zrotation Yrotation Xrotation
								End Site
								{
									OFFSET 0.000000 0.000000 0.000000
								}
							}
						}
					}
				}
			}
		}
	}
	JOINT LeftUpLeg
	{
		OFFSET 1.271939 0.000000 0.000000
		CHANNELS 3 Zrotation Yrotation Xrotation
		JOINT LeftLowLeg
		{
			OFFSET 0.000000 -4.342910 0.000000
			CHANNELS 3 Zrotation Yrotation Xrotation
			JOINT LeftFoot
			{
				OFFSET 0.000000 -4.487670 0.000000
				CHANNELS 3 Zrotation Yrotation Xrotation
				JOINT LeftToeBase
				{
					OFFSET 0.000000 0.000000 1.515070
					CHANNELS 3 Zrotation Yrotation Xrotation
					End Site
					{
						OFFSET 0.000000 0.000000 0.000000
					}
				}
			}
		}
	}
	JOINT RightUpLeg
	{
		OFFSET -1.271939 0.000000 0.000000
		CHANNELS 3 Zrotation Yrotation Xrotation
		JOINT RightLowLeg
		{
			OFFSET 0.000000 -4.342910 0.000000
			CHANNELS 3 Zrotation Yrotation Xrotation
			JOINT RightFoot
			{
				OFFSET 0.000000 -4.487670 0.000000
				CHANNELS 3 Zrotation Yrotation Xrotation
				JOINT RightToeBase
				{
					OFFSET 0.000000 0.000000 1.515070
					CHANNELS 3 Zrotation Yrotation Xrotation
					End Site
					{
						OFFSET 0.000000 0.000000 0.000000
					}
				}
			}
		}
	}
}
MOTION
Frames: 14
Frame Time: 0.041667
-17.336195 8.967747 41.953804 -175.170433 2.558655 -164.581101 4.123350 0.446948 -27.281399 -2.817337 -1.903442 13.756340 0.000000 0.000000 0.000000 31.280954 -0.924336 -5.997251 -5.148084 -17.660802 -71.521561 -27.938999 0.266041 9.787830 -40.931198 -0.990261 23.009600 0.000000 -9.490510 0.000000 4.879850 14.946900 29.190399 30.234800 -4.379750 5.027470 49.431801 -3.450780 12.007996 0.000000 6.023460 0.000000 1.259920 -7.300500 10.951500 4.557077 -21.192944 -11.450749 0.000000 0.000000 4.351960 -1.561523 22.456642 -5.191324 0.000000 0.000000 -10.242600 2.184381 34.870708 -13.094955 0.000000 0.000000 5.679720 2.332964 -26.380282 3.010884 0.000000 0.000000 -17.858760 
-17.334345 8.967067 41.955627 -175.169076 2.965943 -164.504085 4.116992 0.531837 -27.227871 -2.729500 -1.829596 13.577454 0.000000 0.000000 0.000000 30.844495 -0.583184 -5.801859 -5.292869 -17.666951 -71.490432 -27.761700 0.444495 9.687040 -41.106899 0.003197 22.415400 0.000000 -9.228880 0.000000 4.038170 15.204400 29.251101 30.202000 -4.494420 5.082300 49.636902 -3.645060 11.871002 0.000000 5.849240 0.000000 1.631390 -7.292860 11.274500 4.459174 -20.800739 -11.419550 0.000000 0.000000 4.299530 -1.518890 22.482345 -5.198247 0.000000 0.000000 -10.252020 2.034408 35.077514 -13.278337 0.000000 0.000000 5.763170 2.420243 -26.161217 2.974555 0.000000 0.000000 -17.871860 
-17.333336 8.967052 41.955094 -175.146815 3.190891 -164.501510 4.156212 0.543750 -27.212926 -2.663853 -1.850997 13.575620 0.000000 0.000000 0.000000 30.419527 -0.277814 -5.702214 -5.454294 -17.648579 -71.464756 -27.605900 0.703192 9.509970 -41.311401 0.683726 21.586300 0.000000 -8.884770 0.000000 3.259890 15.298400 29.357599 30.273701 -4.219340 4.626810 49.653000 -4.506410 11.523987 0.000000 5.978840 0.000000 2.069140 -7.220960 11.589200 4.409274 -20.586942 -11.349811 0.000000 0.000000 4.271190 -1.518145 22.490325 -5.219773 0.000000 0.000000 -10.245080 2.022175 35.134364 -13.283947 0.000000 0.000000 5.757000 2.407252 -26.000468 3.017323 0.000000 0.000000 -17.878850 
-17.332829 8.967419 41.954885 -175.109926 3.335510 -164.512611 4.213567 0.551674 -27.255667 -2.610756 -1.890220 13.613650 0.000000 0.000000 0.000000 30.038817 -0.004306 -5.475130 -5.615772 -17.721207 -71.479458 -27.481300 0.820564 9.408200 -41.523998 1.209600 20.564100 0.000000 -8.537710 0.000000 2.549840 15.344000 29.028200 30.262300 -4.392160 4.759440 49.646702 -4.199370 11.688995 0.000000 5.863660 0.000000 2.510640 -7.235930 11.628300 4.397902 -20.440111 -11.293002 0.000000 0.000000 4.258810 -1.569208 22.446035 -5.260432 0.000000 0.000000 -10.220630 2.049382 35.134491 -13.265087 0.000000 0.000000 5.747330 2.406680 -25.840308 3.069904 0.000000 0.000000 -17.889850 
-17.332505 8.967695 41.954935 -175.079781 3.410843 -164.520124 4.264969 0.534759 -27.322590 -2.545860 -1.941735 13.606563 0.000000 0.000000 0.000000 29.570088 0.327990 -5.082024 -5.760556 -17.896736 -71.480810 -27.406099 0.855036 9.361110 -41.733799 1.564360 19.528400 0.000000 -8.199360 0.000000 2.055700 15.425000 29.022800 30.259899 -4.645980 5.048560 49.559399 -3.600690 11.652008 0.000000 5.799500 0.000000 2.754750 -7.272770 11.660600 4.406055 -20.370877 -11.260594 0.000000 0.000000 4.249400 -1.608842 22.428331 -5.289743 0.000000 0.000000 -10.212540 2.078977 35.108888 -13.245546 0.000000 0.000000 5.731900 2.413267 -25.718903 3.108396 0.000000 0.000000 -17.903450 
-17.332284 8.967982 41.955486 -175.067958 3.422356 -164.542847 4.293736 0.484537 -27.399862 -2.464580 -1.985394 13.686676 0.000000 0.000000 0.000000 29.213040 0.557589 -4.860587 -5.980584 -17.974130 -71.364326 -27.402599 0.875858 9.269480 -41.885399 1.683580 18.668699 0.000000 -7.941820 0.000000 1.765370 15.641700 28.653799 30.284800 -4.637470 4.981700 49.384499 -3.424640 11.535004 0.000000 5.926180 0.000000 2.708090 -7.256670 11.730800 4.417569 -20.383287 -11.233388 0.000000 0.000000 4.239960 -1.655035 22.418518 -5.297162 0.000000 0.000000 -10.240140 2.123250 35.023011 -13.197604 0.000000 0.000000 5.707930 2.417980 -25.614997 3.127317 0.000000 0.000000 -17.894440 
-17.332136 8.968177 41.956686 -175.056420 3.369093 -164.590980 4.331505 0.435513 -27.473561 -2.413627 -2.042560 13.789034 0.000000 0.000000 0.000000 28.915499 0.706969 -4.687281 -6.379286 -18.003399 -71.048370 -27.432301 0.845124 9.260600 -42.014198 1.527170 17.902599 0.000000 -7.691840 0.000000 1.695580 15.773700 28.521200 30.313900 -4.603340 4.939680 49.173599 -3.112900 11.477997 0.000000 6.073470 0.000000 2.300640 -7.232680 11.343100 4.432959 -20.401197 -11.203375 0.000000 0.000000 4.244870 -1.729760 22.344652 -5.327339 0.000000 0.000000 -10.213510 2.189219 34.944365 -13.128455 0.000000 0.000000 5.691320 2.403015 -25.594761 3.153184 0.000000 0.000000 -17.888690 
-17.332338 8.968549 41.959087 -175.049361 3.320131 -164.674778 4.371642 0.418337 -27.524596 -2.388737 -2.082683 13.915877 0.000000 0.000000 0.000000 28.589472 0.898771 -4.447522 -6.675342 -18.063025 -70.728421 -27.497000 0.773000 9.274700 -42.099499 1.157010 17.420401 0.000000 -7.555160 0.000000 1.719550 15.804700 28.383801 30.364799 -4.547730 4.911210 48.852402 -2.706030 11.213989 0.000000 6.447600 0.000000 2.062940 -7.579680 10.731300 4.417033 -20.348212 -11.133837 0.000000 0.000000 4.241070 -1.754320 22.221414 -5.318742 0.000000 0.000000 -10.201670 2.249719 34.931664 -13.054155 0.000000 0.000000 5.710600 2.420223 -25.617252 3.161986 0.000000 0.000000 -17.900810 
-17.334089 8.968648 41.966262 -175.034455 3.379728 -164.727527 4.453137 0.545103 -27.506349 -2.448223 -2.082781 13.949102 0.000000 0.000000 0.000000 28.150836 1.229053 -4.032262 -6.913758 -18.173375 -70.424960 -27.609400 0.638259 9.353120 -42.118500 0.571841 17.081699 0.000000 -7.494530 0.000000 1.824200 15.738200 28.468599 30.423599 -4.472710 4.850190 48.552299 -2.266620 11.320007 0.000000 6.724110 0.000000 1.248380 -7.276810 10.291700 4.385862 -20.199283 -11.108811 0.000000 0.000000 4.245300 -1.768450 22.123170 -5.307886 0.000000 0.000000 -10.199660 2.193412 35.121290 -13.151249 0.000000 0.000000 5.862280 2.625976 -25.645248 3.061979 0.000000 0.000000 -17.915450 
-17.334989 8.968979 41.970785 -175.039813 3.291325 -164.830230 4.524009 0.612315 -27.550707 -2.554737 -2.115350 14.087598 0.000000 0.000000 0.000000 27.919134 1.392949 -3.692208 -7.224812 -18.230849 -69.989184 -27.711399 0.462942 9.427610 -42.119499 -0.193959 17.036501 0.000000 -7.542680 0.000000 2.086710 15.591400 28.830900 30.498699 -4.380260 4.813860 48.203602 -1.739980 11.255005 0.000000 7.034920 0.000000 0.632161 -7.135890 9.139940 4.363138 -20.195996 -11.044070 0.000000 0.000000 4.240070 -1.775379 22.025491 -5.276360 0.000000 0.000000 -10.188210 2.245467 35.108904 -13.083478 0.000000 0.000000 5.905790 2.649014 -25.708940 3.050073 0.000000 0.000000 -17.914270 
-17.336185 8.969117 41.976749 -175.047712 3.189025 -164.948971 4.582458 0.646539 -27.559004 -2.620172 -2.152756 14.256174 0.000000 0.000000 0.000000 27.719347 1.527655 -3.393984 -7.639617 -18.239368 -69.487332 -27.867901 0.351843 9.473300 -42.048801 -1.125920 17.403299 0.000000 -7.885880 0.000000 2.296900 15.402200 29.210899 30.506100 -4.016620 4.462640 47.889702 -1.672750 11.239014 0.000000 7.520140 0.000000 -0.201034 -6.911030 8.200620 4.333703 -20.184553 -10.980034 0.000000 0.000000 4.250600 -1.770433 21.913707 -5.245880 0.000000 0.000000 -10.164550 2.303821 35.078633 -13.006422 0.000000 0.000000 5.953570 2.711884 -25.757397 3.016334 0.000000 0.000000 -17.904210 
-17.338094 8.970368 41.978018 -175.044980 2.734557 -165.074415 4.702344 0.573188 -27.760510 -2.766995 -2.328662 14.605830 0.000000 0.000000 0.000000 27.514215 1.654784 -3.020527 -8.005004 -18.317308 -69.009648 -28.042500 0.135529 9.637890 -41.917900 -2.209570 17.750601 0.000000 -8.412500 0.000000 2.559910 15.205000 29.250299 30.478001 -3.763390 4.338000 47.620602 -1.282110 11.122009 0.000000 7.923380 0.000000 -1.158220 -6.461430 7.221670 4.419473 -20.521908 -10.998777 0.000000 0.000000 4.330780 -1.778037 21.808723 -5.211191 0.000000 0.000000 -10.138390 2.538910 34.639791 -12.734278 0.000000 0.000000 5.818170 2.553037 -25.839079 3.127776 0.000000 0.000000 -17.900530 
-17.339856 8.970515 41.985432 -175.043316 2.708951 -165.107944 4.785535 0.712466 -27.873543 -2.849146 -2.306368 14.775241 0.000000 0.000000 0.000000 27.253903 1.830830 -2.527893 -8.325536 -18.466330 -68.542523 -28.319000 -0.102125 9.860220 -41.646702 -3.309250 18.298599 0.000000 -9.304200 0.000000 2.869080 14.928500 29.105600 30.463699 -3.671760 4.343120 47.237598 -0.602540 11.229004 0.000000 8.464330 0.000000 -2.139930 -6.659360 6.290460 4.409462 -20.449856 -11.030665 0.000000 0.000000 4.360730 -1.773795 21.714002 -5.192237 0.000000 0.000000 -10.133060 2.517093 34.650446 -12.783375 0.000000 0.000000 5.874150 2.607422 -25.845856 3.109838 0.000000 0.000000 -17.890320 
-17.342734 8.971264 41.989273 -175.015546 2.663921 -165.202785 4.950570 0.977468 -28.023337 -3.073261 -2.293712 15.058050 0.000000 0.000000 0.000000 27.109466 1.916615 -2.062046 -8.694665 -18.580136 -68.002396 -28.547199 -0.380219 10.123600 -41.301399 -4.470340 18.979000 0.000000 -10.484700 0.000000 3.198940 14.490300 28.894400 30.440800 -3.557490 4.227980 46.909698 -0.061939 11.408997 0.000000 8.883670 0.000000 -3.212810 -6.203830 4.668370 4.391677 -20.422525 -10.954884 0.000000 0.000000 4.348340 -1.752961 21.663803 -5.158555 0.000000 0.000000 -10.131740 2.581290 34.607724 -12.718741 0.000000 0.000000 5.922030 2.681560 -25.804429 3.103527 0.000000 0.000000 -17.894260 
